# xmcd
#
# Track frame offsets:
#	150
#	14052
#	29982
#	43867
#	55560
#	71117
#	86942
#	96177
#	106452
#	119260
#
# Disc length: 1837 seconds
#
# Revision: 0
# Processed by: cddbd v1.5.2PL0 Copyright (c) Steve Scherf et al.
# Submitted via: audiograbber 1.83.01
#
DISCID=93072b0a
DTITLE=Estela Nuñez - Tesoros De Coleccion 3.3
DYEAR=2006
DGENRE=Ballad
TTITLE0=La Gloria Eres Tu
TTITLE1=Tres Regalos
TTITLE2=Usted
TTITLE3=La Enramada
TTITLE4=Vanidad
TTITLE5=Peregrina
TTITLE6=Desden
TTITLE7=Granito De Sal
TTITLE8=El Pajaro Azul
TTITLE9=Caminante Del Mayab
EXTD=MS®
EXTT0=MS®
EXTT1=
EXTT2=
EXTT3=
EXTT4=
EXTT5=
EXTT6=
EXTT7=
EXTT8=
EXTT9=
PLAYORDER=
